{
  "title": "Inside Out 2015 NEW SOURCE READNFO TS XViD CHiVE - BULL",
  "uid": 12163259,
  "size": 1518377374,
  "categoryP": "video",
  "categoryS": "movies",
  "magnet": "?xt=urn:btih:60a5d0473153fb159a24b8b8979a2d031cb8810a&amp;dn=Inside+Out+2015+NEW+SOURCE+READNFO+TS+XViD+CHiVE+-+BULL&amp;tr=udp%3A%2F%2Ftracker.openbittorrent.com%3A80&amp;tr=udp%3A%2F%2Fopen.demonii.com%3A1337&amp;tr=udp%3A%2F%2Ftracker.coppersurfer.tk%3A6969&amp;tr=udp%3A%2F%2Fexodus.desync.com%3A6969",
  "seeders": 72,
  "leechers": 17,
  "uploader": "SS132203",
  "files": 3,
  "time": 1437968185,
  "description": "Inside Out 2015 NEW SOURCE READNFO TS XViD CHiVE - BULL\n &lt;a href=&quot;\nhttp://imgsparrow.co/image/CZ&quot; rel=&quot;nofollow&quot; target=&quot;_NEW&quot;&gt;\nhttp://imgsparrow.co/image/CZ&lt;/a&gt;\n &lt;a href=&quot;\nhttp://imgsparrow.co/image/9b&quot; rel=&quot;nofollow&quot; target=&quot;_NEW&quot;&gt;\nhttp://imgsparrow.co/image/9b&lt;/a&gt;\n\nInfo : - \n\nThankCHiVE Not ME!\n\nFormat/Info : Audio Video Interleave\nFile size : 1.40 GiB\nDuration : 1h 28mn\nOverall bit rate : 2 256 Kbps\nWriting application : VirtualDubMod 1.5.10.2 (build 2540/release)\nWriting library : VirtualDubMod build 2540/release\n\nVideo\nID : 0\nFormat : MPEG-4 Visual\nFormat profile : Advanced Simple@L5\nFormat settings, BVOP : 2\nFormat settings, QPel : No\nFormat settings, GMC : No warppoints\nFormat settings, Matrix : Default (H.263)\nMuxing mode : Packed bitstream\nCodec ID : XVID\nCodec ID/Hint : XviD\nDuration : 1h 28mn\nBit rate : 2 117 Kbps\nWidth : 720 pixels\nHeight : 392 pixels\nDisplay aspect ratio : 1.85:1\nFrame rate : 29.970 fps\nColor space : YUV\nChroma subsampling : 4:2:0\nBit depth : 8 bits\nScan type : Progressive\nCompression mode : Lossy\nBits/(Pixel*Frame) : 0.250\nStream size : 1.31 GiB (94%)\nWriting library : XviD 64\n\nAudio\nID : 1\nFormat : MPEG Audio\nFormat version : Version 1\nFormat profile : Layer 3\nMode : Joint stereo\nMode extension : MS Stereo\nCodec ID : 55\nCodec ID/Hint : MP3\nDuration : 1h 28mn\nBit rate mode : Constant\nBit rate : 128 Kbps\nChannel(s) : 2 channels\nSampling rate : 44.1 KHz\nCompression mode : Lossy\nStream size : 81.2 MiB (6%)\nAlignment : Aligned on interleaves\nInterleave, duration : 33 ms (1.00 video frame)\nInterleave, preload duration : 522 ms\n\nwww.imdb.com/title/tt2096673/\n\nRiley (Kaitlyn Dias) is a happy, hockey-loving 11-year-old Midwestern girl, but her world turns upside-down when she and her parents move to San Francisco. Riley's emotions -- led by Joy (Amy Poehler) -- try to guide her through this difficult, life-changing event. However, the stress of the move brings Sadness (Phyllis Smith) to the forefront. When Joy and Sadness are inadvertently swept into the far reaches of Riley's mind, the only emotions left in Headquarters are Anger, Fear and Disgust.\n\nWell Mr CHiVE does it again.\n\nCHiVE clearly states he used the SPA HDCAM erm no you never, you are either not very bright unlike all you're videos or just full of it, either way i say you're both\n\nYou used the Brazilian/Portugese CAM and blurred the logo out top right, not content in talking a little bit shit, you then went on to fail to mention, now i know you must know as someone synced it, that the brazilian CAM had over 2 mins missing at the 25 min 43sec mark.So what we did was use the real SPA HDCAM, yes the one you reckon you used, hence doing it right the 1st time (where the hell have i heard that shit before)\n\nThen you went on to do your usual, ooops lets overbrighten this shit and glare the hell out of it, i mean wtf is this man, looks like she swallowed a 3000 w lightbulb\n\nScreens : - \n &lt;a href=&quot;\nhttp://imgsparrow.co/image/Ca&quot; rel=&quot;nofollow&quot; target=&quot;_NEW&quot;&gt;\nhttp://imgsparrow.co/image/Ca&lt;/a&gt; &lt;a href=&quot;\nhttp://imgsparrow.co/image/Cf&quot; rel=&quot;nofollow&quot; target=&quot;_NEW&quot;&gt;\nhttp://imgsparrow.co/image/Cf&lt;/a&gt; &lt;a href=&quot;\nhttp://imgsparrow.co/image/CI&quot; rel=&quot;nofollow&quot; target=&quot;_NEW&quot;&gt;\nhttp://imgsparrow.co/image/CI&lt;/a&gt; &lt;a href=&quot;\nhttp://imgsparrow.co/image/CP&quot; rel=&quot;nofollow&quot; target=&quot;_NEW&quot;&gt;\nhttp://imgsparrow.co/image/CP&lt;/a&gt;\n &lt;a href=&quot;\nhttp://imgsparrow.co/image/N2&quot; rel=&quot;nofollow&quot; target=&quot;_NEW&quot;&gt;\nhttp://imgsparrow.co/image/N2&lt;/a&gt;",
  "parsed": {
    "xt": "urn:btih:60a5d0473153fb159a24b8b8979a2d031cb8810a",
    "dn": "Inside Out 2015 NEW SOURCE READNFO TS XViD CHiVE - BULL",
    "tr": [
      "udp://exodus.desync.com:6969",
      "udp://open.demonii.com:1337",
      "udp://tracker.coppersurfer.tk:6969",
      "udp://tracker.openbittorrent.com:80"
    ],
    "infoHash": "60a5d0473153fb159a24b8b8979a2d031cb8810a",
    "infoHashBuffer": {
      "type": "Buffer",
      "data": [
        96,
        165,
        208,
        71,
        49,
        83,
        251,
        21,
        154,
        36,
        184,
        184,
        151,
        154,
        45,
        3,
        28,
        184,
        129,
        10
      ]
    },
    "name": "Inside Out 2015 NEW SOURCE READNFO TS XViD CHiVE - BULL",
    "announce": [
      "udp://exodus.desync.com:6969",
      "udp://open.demonii.com:1337",
      "udp://tracker.coppersurfer.tk:6969",
      "udp://tracker.openbittorrent.com:80"
    ],
    "urlList": []
  },
  "previous": 27,
  "peers": 10,
  "last_updated": "2016-12-27T01:51:49.156Z"
}